<?xml version="1.0" encoding="UTF-8"?>
<svg id="Layer_1" data-name="Layer 1" xmlns="http://www.w3.org/2000/svg" xmlns:xlink="http://www.w3.org/1999/xlink" viewBox="0 0 87.21 50.41">
  <defs>
    <style>
      .cls-1, .cls-2 {
        fill: none;
      }

      .cls-3 {
        fill: #518154;
      }

      .cls-4 {
        fill: #211e1f;
      }

      .cls-5 {
        fill: #fff;
      }

      .cls-6 {
        fill: #d84332;
      }

      .cls-2 {
        stroke: #211e1f;
        stroke-miterlimit: 10;
        stroke-width: 1.5px;
      }

      .cls-7 {
        clip-path: url(#clippath);
      }
    </style>
    <clipPath id="clippath">
      <path class="cls-1" d="M33.01,12.96l-1.99-12.01c-.05-.28.17-.54.46-.55L54.05,0c.29,0,.51.24.48.53l-1.49,12.33-20.02.1Z"/>
    </clipPath>
  </defs>
  <polyline class="cls-5" points="5.93 5.52 10.65 5.38 60.95 12.05 75.76 5.16 81.38 5.32 82.68 17.6 71.7 39.21 42.11 46.64 23.6 43.42 7.85 28.79 4.64 9.51 5.91 5.52"/>
  <path class="cls-6" d="M75.76,5.16l-65.11.22c-.73,0-1.31.6-1.28,1.33.02.59.05,1.19.1,1.67.9,8.61,4.04,18.69,11.12,24.37,9.77,7.84,25.73,9.1,35.53,5.21,9.8-3.89,18.88-14.06,20.64-27.08.19-1.43.34-2.97.31-4.44-.01-.71-.59-1.28-1.3-1.27ZM19.26,13.61c-.04-.05-.09-.08-.15-.08h0c.06,0,.11.02.15.08ZM16.84,18.01c.24.27.55.31.87.24-.32.07-.63.03-.87-.24ZM21.75,22.59c0-.56.92-2.67,1.52-2.64,0,0,0,0,0,0-.6-.03-1.51,2.08-1.51,2.64,0,.81.27,1.98,1.22,1.86-.95.12-1.23-1.06-1.22-1.86ZM31.36,26.88c-.25.18-1.09.34-1.35.18-1.41-.84-.14-4.26,1.2-4.89-1.34.63-2.61,4.05-1.2,4.89.26.15,1.09,0,1.35-.18.78-.55.81-3.66.02-4.56.79.9.77,4.01-.02,4.56ZM40.32,30.56c-.31.26-.82.35-1.19.17-.37-.18-.61-.53-.73-.96.13.43.36.78.73.96.37.18.88.1,1.19-.17.39-.33.55-.98.53-1.71.02.72-.13,1.38-.53,1.71ZM48.7,28.13c-.51-.93-.63-2.32-.38-3.34.1-.41.12-.72.29-.79-.17.07-.19.38-.29.79-.25,1.02-.13,2.41.38,3.34h0c.25.46.76.76,1.25.73-.48.03-1-.27-1.25-.73ZM57.52,23.71c1.03-.13,1.04-1.64.76-2.48-.08-.24-.98-1.65-1.1-1.71-.03-.01-.09,0-.16.03.07-.03.13-.04.16-.03.13.06,1.02,1.47,1.1,1.71h0c.29.83.27,2.35-.76,2.48ZM63.34,14.33s.1-.05.17-.04c-.07-.01-.13,0-.17.04-.54,1.14-.45,4.89,1.24,4.9h0c.32,0,.57-.08.75-.22-.18.14-.43.22-.75.22-1.69-.01-1.77-3.77-1.24-4.9Z"/>
  <path class="cls-4" d="M39.24,26.4c-1.24.88-1.92,4.23-.43,4.95.37.18.88.1,1.19-.17,1.05-.9.39-4.04-.76-4.78Z"/>
  <path class="cls-4" d="M47.3,26.3c-1.16.99-1.53,4.39.02,4.97.39.15.88.02,1.17-.28.96-.99.03-4.05-1.19-4.69Z"/>
  <path class="cls-4" d="M30.69,23.89c-1.46.42-3.2,3.37-2.02,4.54.29.29.8.38,1.18.23,1.29-.5,1.69-3.69.84-4.77Z"/>
  <path class="cls-4" d="M22.95,17.73c-1.52,0-3.99,2.37-3.18,3.82.2.36.67.58,1.07.54,1.37-.13,2.63-3.09,2.11-4.36Z"/>
  <path class="cls-4" d="M20.24,10.43c-1.47-.4-4.48,1.22-4.09,2.83.1.4.49.74.89.81,1.36.24,3.36-2.27,3.2-3.64Z"/>
  <path class="cls-4" d="M55.77,23.16c1.46.42,3.2,3.37,2.02,4.54-.29.29-.8.38-1.18.23-1.29-.5-1.69-3.69-.84-4.77Z"/>
  <path class="cls-4" d="M63.51,17c1.52,0,3.99,2.37,3.18,3.82-.2.36-.67.58-1.07.54-1.37-.13-2.63-3.09-2.11-4.36Z"/>
  <path class="cls-4" d="M66.22,9.71c1.47-.4,4.48,1.22,4.09,2.83-.1.4-.49.74-.89.81-1.36.24-3.36-2.27-3.2-3.64Z"/>
  <path class="cls-3" d="M42.24,50.41c-12.99,0-23.32-3.98-30.72-11.83C3.49,30.06.88,19.03.04,12.04c-.43-3.56,2.38-6.66,5.87-6.52h.03s0,0,0,0c0,.17-.47,17.41,10.12,28.61,6.25,6.61,15.19,9.93,26.62,9.83,12.19-.09,21.73-3.7,28.36-10.73,10.6-11.24,10.34-27.74,10.34-27.91h0c3.53-.1,6.28,3.11,5.77,6.7-.95,6.77-3.7,17.26-11.56,25.64-7.84,8.35-18.9,12.64-32.86,12.74-.16,0-.33,0-.49,0Z"/>
  <rect class="cls-4" x="31.46" y="11.3" width="23.03" height="2.9"/>
  <path class="cls-5" d="M33.01,12.96l-1.99-12.01c-.05-.28.17-.54.46-.55L54.05,0c.29,0,.51.24.48.53l-1.49,12.33-20.02.1Z"/>
  <path class="cls-2" d="M36.64,13.27l-.85-7.42c-.1-.86.57-1.61,1.43-1.61l11.86-.08c.84,0,1.51.71,1.46,1.55l-.51,7.47"/>
  <g class="cls-7">
    <path class="cls-4" d="M47.82,7.23c-2.98,2.42-5.68,5.15-8.12,8.12-.95,1.12-2.54-.45-1.41-1.41,2.97-2.44,5.7-5.14,8.12-8.12.95-1.15,2.56.45,1.41,1.41h0Z"/>
    <path class="cls-4" d="M39.7,5.82c2.42,2.98,5.15,5.68,8.12,8.12,1.12.95-.46,2.54-1.41,1.41-2.44-2.97-5.14-5.7-8.12-8.12-1.15-.95.45-2.56,1.41-1.41h0Z"/>
  </g>
</svg>