<svg xmlns="http://www.w3.org/2000/svg" xmlns:xlink="http://www.w3.org/1999/xlink" id="Layer_1" data-name="Layer 1" viewBox="0 0 649.93 576.17">
  <defs>
    <style>
      .cls-1 {
        fill: none;
      }

      .cls-2 {
        fill: #518154;
      }

      .cls-3 {
        fill: #231f20;
      }

      .cls-4 {
        fill: #211e1f;
      }

      .cls-5 {
        fill: #fff;
      }

      .cls-6 {
        fill: #d84332;
      }

      .cls-7 {
        clip-path: url(#clippath);
      }
    </style>
    <clipPath id="clippath">
      <path class="cls-1" d="M289.11,211.01l-9.05-54.73c-.21-1.29.77-2.47,2.08-2.49l102.79-1.8c1.3-.02,2.32,1.11,2.16,2.4l-6.79,56.15-91.2.47Z"/>
    </clipPath>
  </defs>
  <g>
    <g>
      <polyline class="cls-5" points="165.76 177.11 187.22 176.5 416.36 206.9 483.81 175.51 509.4 176.22 515.32 232.14 465.33 330.6 330.52 364.43 246.2 349.79 174.51 283.14 159.87 195.29 165.65 177.13"/>
      <path class="cls-6" d="M483.81,175.51l-296.59.99c-3.31.01-5.96,2.76-5.85,6.07.1,2.69.22,5.43.44,7.58,4.09,39.2,18.41,85.15,50.65,111.01,44.51,35.72,117.18,41.45,161.83,23.73,44.65-17.72,85.99-64.04,94-123.34.88-6.52,1.53-13.53,1.43-20.24-.05-3.23-2.68-5.82-5.91-5.81ZM226.46,214c-.19-.23-.42-.36-.68-.35v-.02c.26,0,.49.13.68.37ZM215.45,234.01c1.08,1.22,2.52,1.4,3.96,1.08-1.44.32-2.89.14-3.96-1.08ZM237.8,254.87c.02-2.55,4.19-12.16,6.91-12.01,0,0,0,0,0,0-2.72-.12-6.88,9.46-6.9,12.01-.03,3.67,1.24,9.02,5.56,8.49-4.32.55-5.59-4.81-5.57-8.48ZM281.55,274.41c-1.16.81-4.96,1.53-6.14.83-6.43-3.84-.64-19.41,5.48-22.28-6.12,2.87-11.88,18.46-5.48,22.28,1.17.7,4.98-.04,6.14-.83,3.57-2.49,3.68-16.66.1-20.77,3.58,4.11,3.49,18.28-.1,20.77ZM322.39,291.2c-1.43,1.19-3.73,1.59-5.43.75-1.7-.83-2.78-2.42-3.35-4.38.57,1.96,1.65,3.54,3.34,4.37,1.7.83,4,.45,5.43-.75,1.8-1.52,2.51-4.48,2.42-7.77.1,3.3-.61,6.27-2.42,7.79ZM360.56,280.12c-2.34-4.22-2.87-10.55-1.75-15.21.44-1.86.54-3.27,1.32-3.59-.77.33-.87,1.74-1.31,3.59-1.12,4.66-.59,11,1.75,15.21h.02c1.16,2.08,3.48,3.46,5.68,3.33-2.21.15-4.55-1.23-5.71-3.33ZM400.73,259.98c4.67-.61,4.74-7.49,3.44-11.28-.37-1.1-4.45-7.53-5.03-7.79-.14-.06-.4,0-.72.12.33-.13.59-.19.74-.13.58.26,4.65,6.69,5.03,7.79h.02c1.3,3.8,1.23,10.7-3.47,11.28ZM427.22,217.26c.19-.19.45-.24.77-.17-.31-.06-.57-.02-.76.17-2.44,5.2-2.05,22.27,5.63,22.34v-.02c1.47.01,2.59-.35,3.41-.96-.83.63-1.94.99-3.43.98-7.68-.07-8.06-17.15-5.63-22.33Z"/>
      <path class="cls-4" d="M317.45,272.24c-5.67,3.99-8.75,19.27-1.95,22.56,1.7.82,4,.43,5.42-.78,4.78-4.08,1.79-18.38-3.47-21.79Z"/>
      <path class="cls-4" d="M354.19,271.77c-5.28,4.49-6.97,19.98.1,22.65,1.77.67,4.03.07,5.33-1.26,4.39-4.5.12-18.47-5.43-21.38Z"/>
      <path class="cls-4" d="M278.51,260.79c-6.66,1.92-14.57,15.35-9.22,20.69,1.34,1.33,3.64,1.72,5.38,1.04,5.85-2.29,7.7-16.79,3.84-21.73Z"/>
      <path class="cls-4" d="M243.27,232.74c-6.93.03-18.19,10.81-14.5,17.4.92,1.65,3.04,2.65,4.89,2.46,6.26-.61,11.98-14.06,9.61-19.86Z"/>
      <path class="cls-4" d="M230.91,199.51c-6.69-1.82-20.42,5.56-18.62,12.9.45,1.83,2.22,3.36,4.06,3.68,6.19,1.08,15.29-10.35,14.56-16.58Z"/>
      <path class="cls-4" d="M392.78,257.49c6.66,1.92,14.57,15.35,9.22,20.69-1.34,1.33-3.64,1.72-5.38,1.04-5.85-2.29-7.7-16.79-3.84-21.73Z"/>
      <path class="cls-4" d="M428.02,229.43c6.93.03,18.19,10.81,14.5,17.4-.92,1.65-3.04,2.65-4.89,2.46-6.26-.61-11.98-14.06-9.61-19.86Z"/>
      <path class="cls-4" d="M440.38,196.2c6.69-1.82,20.42,5.56,18.62,12.9-.45,1.83-2.22,3.36-4.06,3.68-6.19,1.08-15.29-10.35-14.56-16.58Z"/>
      <path class="cls-2" d="M331.12,381.59c-59.15,0-106.21-18.12-139.91-53.89-36.56-38.79-48.47-89.03-52.28-120.86-1.94-16.24,10.83-30.35,26.72-29.72h.12s0-.02,0-.02c-.03.79-2.16,79.29,46.1,130.32,28.48,30.12,69.2,45.21,121.27,44.79,55.54-.42,99-16.87,129.17-48.89,48.28-51.22,47.11-126.36,47.09-127.11h0c16.1-.44,28.6,14.15,26.3,30.54-4.33,30.82-16.84,78.61-52.67,116.77-35.72,38.03-86.07,57.56-149.68,58.05-.74,0-1.49,0-2.23,0Z"/>
      <rect class="cls-4" x="282.02" y="203.45" width="104.9" height="13.23"/>
      <path class="cls-5" d="M289.11,211.01l-9.05-54.73c-.21-1.29.77-2.47,2.08-2.49l102.79-1.8c1.3-.02,2.32,1.11,2.16,2.4l-6.79,56.15-91.2.47Z"/>
      <path class="cls-4" d="M302.25,212.82l-3.89-33.81c-.32-2.82.57-5.66,2.45-7.78,1.88-2.13,4.59-3.36,7.43-3.38l54.04-.37h.07c2.76,0,5.41,1.15,7.3,3.15,1.9,2.03,2.89,4.78,2.7,7.55l-2.35,34.01-6.81-.47,2.35-34c.06-.89-.24-1.75-.86-2.4-.61-.65-1.45-1.16-2.34-1l-54.04.37c-.92,0-1.76.39-2.36,1.07-.61.69-.89,1.57-.78,2.48l3.89,33.81-6.79.78Z"/>
      <g class="cls-7">
        <path class="cls-4" d="M356.55,184.94c-13.59,11-25.88,23.45-36.98,36.98-4.34,5.1-11.56-2.07-6.44-6.44,13.52-11.1,25.97-23.39,36.98-36.98,4.34-5.22,11.68,2.07,6.44,6.44h0Z"/>
        <path class="cls-4" d="M319.57,178.5c11.01,13.59,23.45,25.88,36.98,36.98,5.1,4.34-2.07,11.56-6.44,6.44-11.1-13.52-23.39-25.97-36.98-36.98-5.22-4.34,2.07-11.68,6.44-6.44h0Z"/>
      </g>
    </g>
    <g>
      <path class="cls-3" d="M445.73,419.89c4.24-2.17,7.01-7.4,4.33-12.92-2.35-5.81-7.98-6.26-12.5-4.42-5.24,2.07-6.96,7.49-4.33,12.92,1.84,4.05,8.3,6.45,12.5,4.42Z"/>
      <path class="cls-3" d="M591.86,353.74c-1.9-1.27-5.6-.12-7.93.56-1.87.8-5.12,1.34-6.31,2.67-.43.99.56,3.47.67,5.01.15,1.7.19,2.71.12,4.62-.45,3.57-.35,8.28-3.27,10.7-1.73,1.5-4.74,1.67-6.25.03-7.77-10.63-13.04-19.81-20.76-30.26-1.09-1.49-2.97-3.32-4.67-1.48-2.47,2.62-6.81,7.78-8.76,10.22-.88,1.42-.57,2.44.37,3.98.37.77,1.1,1.51.69,2.44-12.7-.8-20.05,14.01-19,26.06,1.83,8.33,5.73,15.76,11.38,22.19,2.09,2.5-1.39,21.63-6.59,14-2.44-5.34-3.88-12.62-7.23-17.4-2.17-4.03-4.08-7.34-8.04-10.05-11.22-7.56-24.87,1.79-27.09,13.7-.31.24-.79-1.29-1.44-2.02-1.51-1.62-3.2.16-4.77,1.13-2.32,2.05-7.23,4.07-8.39,6.76-.11,1.94,1.4,4.35,2.11,6.45,2.39,6.6,5.28,12.27,8.08,19.05,1.92,5.77-1.15,12.2-5.37,16.4-8.72,8.27-7.58-11.16-10.04-16.36-1.88-5.59-2.26-10.69-4.24-16.55-.88-2.65-3.41-2.56-5.54-1.36-2.65,1.56-6.9,2.63-8.7,5-.38,7.78,4.75,16.66,5.29,24.32-.06,3.55-2.23,6.64-3.8,9.39-2.3,3.71-8.12,18.22-13.76,11.47-2-5.45-1.5-12.05-2.55-17.72-.43-4.9-1.34-10.19-.71-14.95,1.71-2.15,5.46-1.71,7.2-4.03,1.38-2.12.52-5.41.46-7.96-.21-1.71-.37-3.49-1.51-4.78-1.62-1.16-4.87.84-6.9,1.14-.74.08-1.34-.25-1.57-1.02-1.14-5.08-.1-10.91-2.44-15.56-1.63-.98-3.11.18-5.07.66-3.76,1.44-8.55,1.42-7.6,6.69-.19,4.15.64,8.75.39,12.76-.39,1.5-2.77,1.81-4.01,2.32-3.15.86-5.39,2.51-4.67,6.19.76,4.49-1.34,12.78,5.95,9.35,3.78-1.18,5.19-2.45,5.2,1.45.48,7.74,1.72,15.86,1.79,23.67-.76,3.77-3.54,8.93-7,11.31-1.84,1.5-6.44,2.49-8.55,2.25,6.7-15.45.91-30.28-14.52-38.14-5.15-2.97-11.04-3.54-15.32-4.6-.81-.66-.6-2.83-1.94-3.2-3.66-.83-7.94.21-11.97.25-2.18-.07-3.86,1.16-3.33,3.47.37,3.53,1.27,9.17,1.45,13.65,2.89,21.53-2.32,40.65-28.07,36.27-4.69-.87-9.63-2.6-12.05-6.79-.78-1.41-.54-2.02.64-1.25,1.45,1.04,4.07,1.55,6.15,1.85,9.14,1.09,20.45-3.4,23.27-13.62,2.29-9.51-.64-20.19-9.98-24.64-7.75-3.12-16.84-2.56-23.84,2.14-1.56.75-3.28,3.1-4.75,3.36-.64-.04-.9-1.48-1.38-2.47-.7-1.63-1.55-3.09-2.65-4.51-9.18-11.97-29.18-11.34-38.33.38-6.17,6.16-6.99,16.22-14.11,21.39-4.88,3.02-12.43,5.85-17.51,2.13-2.49-1.85-5.44-7.39-1.61-9.14,4.86-2,9.61-5.01,14.01-7.65,11.74-8.93,24.12-23.03,22.47-38.79-1.53-8.01-10.83-12.77-18.49-10.59-10.91,3.29-18,11.46-23.34,21.54-3.81,6.58-9.57,16.1-10.88,23.32-1.32,3.44-6.26,3.38-9.47,3.83-10.5,1.37-15.82-5.24-5.65-12.44,8.81-8.57,14.48-13.68,22.7-22.49.66-1.2.56-2.5-.66-3.31-3.01-1.98-8.84-5.37-11.57-6.87-1.44-.54-2.58-.21-3.85,1.05-.34.28-1.03.83-1.37,1.1h-.91c-.5-1.2-.4-3.37-1.39-5.16-12.09-17.72-36.19-9.47-47.3,5.83-1.08,1.25-1.9,2.65-3.23,3.62-1.05.55-2.51.22-3.91.17-3.87-.3-8.58-1.42-11.5-3.83-.42-.41-.24-.62.35-.69,11.92-1.25,30.28-16.31,28.41-30.3-1.14-10.07-10.88-18.81-20.51-19.99-.32-.23.98-.93,1.76-1.66.81-.72,1.18-1.48.71-2.27-3.37-3.88-8.06-9.15-11.41-12.47-1.24-.87-2.23-.7-3.85.28-1.08.7-2.68,1.44-3.72,2.21-22.63,15.24-46.81,28.81-69.33,44.21-.88,2.87,3.84,5.1,5.43,7.49,2.5,2.33,4.24,5.06,7.18,6.37,3.67.64,6.74-3.02,10.28-4.72,5.28-3.19,8.92-5.8,14.52-9.27,8.29-4.92,15.94-10.78,24.33-15.38,4.13-2.2,8.18-5.02,12.94-4.85,9.39,1.1,13.02,13.08,5.55,19.53-5.01,5.99-15.48,7.49-18.77-.92-.99-3.2-3.38-.28-5.4.53-3.31,1.86-7.78,4.09-10.38,6.14-.36.46-.33,1.05-.11,1.81,5.34,15.84,22.4,32.66,39.69,34.67,2.52.51,1.66,3.14,2.45,5.42.79,4.49,3.23,8.1,7.16,10.61,5.24,3.51,11.84,3.89,17.67,1.41.89-.33,1.65-.54,2.07-.22,1.08,1.49.87,4.67,1.79,6.62,1.16,6.16,7.81,11.1,13.97,13.26,7.35,2.68,15.39.89,23.03.11,1.81,2.9,2.74,7.92,6.36,11.88,8.97,9.53,22.33,8.51,33.57,4.23.76.19.9,1.48,1.33,2.45,1.3,3.17,3.44,6.31,5.89,8.71,10.19,8.34,27.01,2.43,34.56-6.17,3.24-3.68,2.79-4.83,4.44.83,6.46,17.54,27.71,21.98,45.2,18.84,17.38-3.12,29.69-21.38,29.22-38.92.29-3.56-.06-7.07.05-10.63,1.2-2.05,3.88.21,5.59.87,6.08,3.29,9.88,12.25,6.84,18.68-.74,1.57-1.82,3.04-3.18,4.17-1.24,1.19-3.42,1.65-4.11,3.07-.67,1.79.32,3.89.62,5.58.63,2.14.85,5.15,2.01,7.51,7.15,3.83,14.89,3.33,23.43,2.53,9.42-.16,16.19-6.39,22.21-12.59,15.62,4.03,23.32-4.53,30.75-17.23,7.99,7.64,21.47,5.03,27.34-4.32,5.56-9.38,2.85,2.16,8.36,2.86,4.2-.49,7.74-4.67,11.26-6.77.89-1.05,1.54-2.17,1.02-3.68-3.8-10.76-8.72-22.05-12.25-32.66-2.09-4.2-1.46-9.3,2.25-12.01,5.1-3.96,10.62,2.22,11.82,7.49,1.3,4.28,3.04,7.62,4.26,11.64,2.43,5.42,7.84,11.07,14.28,11.21,13.24.4,19.69-13.29,22.99-24.37,1.05-.68,3.04.25,4.73.11,1.48.04,3.09-.08,4.54-.2,9.38-.8,16.44-11.22,14.6-20.45.02-1.1-.84-3.2-.12-3.92.46-.53,1.8-.25,2.81-.31,21.66.48,27.52-26.94,20.79-44.27l-.28-.44ZM312.54,470.03c.08-.26.2-.51.33-.74,2.56-4.79,11.06-8.95,14.61-2.66.51.9.79,1.96.66,2.98-.24,1.79-1.71,3.22-3.39,3.88-1.67.66-3.53.69-5.33.64-2.04-.06-4.22-.27-5.83-1.53-.63-.5-1.18-1.22-1.15-2.02,0-.19.04-.37.1-.54ZM242.03,424.97c1.19-.97,2.87-2.82,4.5-3.22,1.51-.45,2.24.38,1.89,2.22-.87,3.77-3.54,8.39-6.09,11.08-3.98,4.23-8,8.58-13.75,10.63,2.09-7.12,7.37-15.21,13.45-20.71ZM186.21,424.76c-3.06,6.3-8.24,9.53-14.61,10.76-1.62.29-3.84-.27-5.73-1.11-2.59-1.26-3.78-4.55-3.18-7.88,1.14-6.83,8.87-13.95,15.14-13.47,2.02.11,3.72.2,6.36,1.65,3.84,3.15,3.97,5.8,2.02,10.05ZM287.72,464.86c-.43,6.99-3.99,11.95-9.4,15.52-1.39.89-3.65,1.21-5.72,1.16-2.88-.18-5.23-2.77-5.95-6.07-1.55-6.75,2.89-16.28,8.87-18.22,1.9-.66,3.52-1.24,6.51-.89,4.75,1.45,5.89,3.85,5.69,8.52ZM552.38,400.09c-1.69,2.33-5.14,2.94-8.31,1.78-6.53-2.3-12.21-11.15-10.66-17.25.46-1.97.84-3.63,2.72-5.98,3.77-3.24,6.4-2.92,10.25-.25,5.68,4.1,7.97,9.76,8.08,16.24,0,1.65-.93,3.74-2.08,5.45Z"/>
      <path class="cls-3" d="M263.01,39.95c-14.9-38.97-63.84-8.3-42.92,24.68,4.58,6.97,11.3,12.26,16.92,18.38,15.34,16.05-16.45,29.23-15.4,5.73.43-3.67-4.99-3.52-8.04-4.72-10.49-3.49-9.74-.29-9.96,9.01-.71,22.18,24.49,35.17,42.89,24.8,17.68-7.86,18.09-33.38,4.33-45.72-5.71-7.44-16.02-12.71-16.73-22.92-.33-5.22,5.94-9.29,10.3-5.95,2.22,1.52,3.24,4.24,5.41,5.74,2.87.25,6.2-2.27,9.08-3.09,2.41-.77,5.82-2.43,4.37-5.33l-.26-.6Z"/>
      <path class="cls-3" d="M463.37,98.65c-1.36-1.47-4.19-3.07-6.18-4.57-1.96-1.26-3.84-3.69-5.28-3.59-2.58.76-4.47,4.42-6.82,6.02-2.73,2.14-5.52,6.93-8.85,4.27-.96-1.06-.51-2.8-.07-4.42,1.14-4.11,2.89-8.33,3.28-12.44.47-3.82.58-5.59.84-8.92.49-7.75-4.76-16.67-13.31-17.18-7.71-1.58-15.98.99-20.27,7.68-.77.56-1.58-2.37-2.71-3.54-.92-1.16-1.96-2.02-3.01-2.72-6.93-4.69-18.07-1.23-23.44,4.2-1.12.99.35-2.34-.28-3.62-1.68-2.12-5.97-.79-9.17-1.15-3.47.28-5.51-1.02-6.76,2.08-3.15,11.51-4.66,22.46-8.03,33.83-7.44,10.53-24.41,11.74-34.53,4.57-1.05-.74-3.65-4.35-1.09-3.2,3.42,1.74,8.01,1.72,12,1,20.52-2.61,23.02-31.03,4.34-38.67-21.74-7.5-38.78,16.31-35.61,35.77.76,5.23-15.66,15.87-15.92,6.1,1.86-11.73,3.83-20.51,6.88-31.5.46-1.25.69-2.46,2.42-2.38,2.56-.22,6.61.52,8.2-2.15,1.32-3.19,2.74-7.93,2.52-11.34-.31-2.74-5.03-1.84-7.22-1.95-1.01.01-2-.09-2.01-.9.42-5.52,3.71-11.74,2.86-17.49-.85-1.21-2.74-1.01-4.15-1.02-2.35.2-6.75-.44-9.08.4-2.22,1.16-2.31,5.28-3.32,7.36-1.28,3.12-1.21,7.64-3.28,10.22-2.04,1.03-4.76.19-7.09.68-3.73.19-3.95,3.98-4.78,6.99-.47,2.08-1.07,3.88-1.48,5.95-.36,4.3,4.25,2.99,7.43,3.2,4.19-.47,2.68,1.81,2.13,4.62-1.49,5.67-2.61,12-4.29,18.15-1.55,6.66-4.27,14.03-1.69,20.24,4.85,12.99,21.44,14.14,29.61,8.83,3.38-1.46,6.77-5.2,9.9-6.73.95-.15,1.74.96,2.64,1.67,10.22,9.13,27.88,8.76,39.92,5.66,1.18-.14,1.92.99,3.19,1.22,1.25.24,2.79.14,4.24.22,3.31-.49,8.77,1.5,10.22-2.51,3.16-11.29,5.62-23.59,8.93-34.59.62-3.78,4.04-7.8,8.02-7.38,6.14.56,6.25,6.5,5.05,11.32-1.74,9.61-4.37,21.18-6.25,30.44-.51,3.24,3.1,1.81,5.7,2.24,2.54-.05,7.77.58,10.48-.38,1.15-.79,1.52-1.62,1.75-3.22.63-4.28,1.64-8.54,2.44-12.45,1.59-6.93,2.2-10.5,3.92-16.74,1.19-5.06,3.01-12.25,9.68-11.91,11.24,3.34,2.11,17.98,1.5,25.61-2.24,12.73,7.16,22.47,19.64,19.96,9.52-1.25,23.44-12.2,26.38-21.43l-.13-.45ZM317.29,80.16c.08-.26.23-.51.37-.75,2.9-4.98,9.04-9.11,14.09-4.05.91,1.15,1.39,2.69,1.04,4.11-.37,1.5-1.59,2.67-2.99,3.32-1.4.65-2.95.85-4.49.98-2.54.21-5.37.13-7.25-1.59-.48-.44-.89-1.03-.84-1.68.01-.12.03-.23.07-.34Z"/>
    </g>
  </g>
  
</svg>